<?xml version="1.0" standalone="no"?>
<!DOCTYPE svg PUBLIC "-//W3C//DTD SVG 20010904//EN"
 "http://www.w3.org/TR/2001/REC-SVG-20010904/DTD/svg10.dtd">
<svg version="1.0" xmlns="http://www.w3.org/2000/svg"
 width="512.000000pt" height="512.000000pt" viewBox="0 0 512.000000 512.000000"
 preserveAspectRatio="xMidYMid meet">

<g transform="translate(0.000000,512.000000) scale(0.100000,-0.100000)"
fill="#000000" stroke="none">
<path d="M1475 4124 c-11 -3 -47 -12 -80 -21 -33 -9 -96 -19 -140 -22 l-80 -6
-6 -73 c-4 -60 -10 -77 -32 -100 l-27 -28 7 -1432 6 -1432 1551 2 1551 3 3
1551 2 1550 -1312 0 c-722 0 -1338 3 -1368 6 -30 3 -64 4 -75 2z m2413 -191
l152 -6 0 -1364 c0 -1084 -3 -1363 -12 -1363 -7 0 -620 0 -1362 0 -1065 0
-1352 3 -1358 13 -12 19 -10 2685 2 2708 10 19 35 19 1219 19 664 0 1276 -3
1359 -7z"/>
<path d="M2956 3206 c-113 -196 -206 -360 -206 -366 0 -7 144 -10 421 -10 340
0 420 2 416 13 -10 25 -399 692 -411 705 -11 11 -50 -50 -220 -342z"/>
<path d="M2136 3137 c-45 -49 -181 -271 -300 -491 -57 -105 -73 -143 -64 -153
15 -18 828 -19 828 -1 0 22 -383 669 -403 679 -16 9 -26 4 -61 -34z"/>
<path d="M2951 2268 l-211 -363 421 -3 c232 -1 424 0 426 2 5 5 -392 693 -412
714 -10 11 -53 -57 -224 -350z"/>
<path d="M1963 1928 c-116 -200 -209 -366 -206 -370 2 -5 193 -8 424 -8 366 0
420 2 417 15 -4 20 -411 724 -419 725 -3 0 -101 -163 -216 -362z"/>
</g>
</svg>
