<?xml version="1.0" encoding="UTF-8" standalone="no"?>
<svg xmlns="http://www.w3.org/2000/svg" version="1.2" baseProfile="tiny" viewBox="0.00 0.00 149.00 148.00" width="50.00" height="50.00">
<path fill="#0096c7" d="
  M 131.70 124.76
  L 131.76 126.39
  Q 131.78 127.00 131.17 127.00
  Q 78.34 127.00 25.51 127.00
  Q 24.99 127.00 24.99 126.48
  Q 25.05 78.18 24.91 29.95
  C 24.90 28.62 24.92 28.38 26.11 27.79
  Q 26.60 27.55 26.64 27.01
  L 26.96 22.60
  A 0.69 0.68 -84.8 0 1 27.72 21.96
  Q 31.28 22.34 34.48 21.14
  Q 36.65 20.33 38.29 20.36
  Q 84.78 21.18 131.18 20.39
  A 0.58 0.57 -0.5 0 1 131.77 20.96
  Q 131.74 73.16 131.75 124.25
  Q 131.75 124.39 131.72 124.53
  Q 131.69 124.64 131.70 124.76
  Z
  M 123.69 120.31
  Q 123.99 120.55 124.32 120.53
  A 0.73 0.73 0.0 0 0 125.00 119.80
  L 125.00 27.66
  A 0.52 0.52 0.0 0 0 124.48 27.14
  L 33.04 26.95
  A 1.32 1.32 0.0 0 0 31.72 28.27
  L 31.76 119.74
  Q 31.76 120.29 32.31 120.29
  Q 78.10 120.17 123.69 120.31
  Z"
/>
<path fill="#0096c7" d="
  M 80.81 64.07
  L 94.73 40.04
  A 0.62 0.62 0.0 0 1 95.81 40.04
  L 109.73 64.07
  A 0.62 0.62 0.0 0 1 109.19 65.00
  L 81.35 65.00
  A 0.62 0.62 0.0 0 1 80.81 64.07
  Z"
/>
<path fill="#0096c7" d="
  M 47.23 75.34
  C 51.19 68.38 55.37 59.82 60.35 53.42
  A 1.61 1.61 0.0 0 1 63.01 53.59
  L 76.01 75.79
  A 0.65 0.65 0.0 0 1 75.45 76.77
  L 48.03 76.72
  A 0.93 0.92 15.1 0 1 47.23 75.34
  Z"
/>
<path fill="#0096c7" d="
  M 80.61 96.14
  L 94.89 71.58
  A 0.41 0.41 0.0 0 1 95.59 71.58
  L 109.87 96.14
  A 0.41 0.41 0.0 0 1 109.51 96.75
  L 80.97 96.75
  A 0.41 0.41 0.0 0 1 80.61 96.14
  Z"
/>
<path fill="#0096c7" d="
  M 46.71 107.99
  L 61.15 83.15
  A 0.34 0.34 0.0 0 1 61.73 83.15
  L 76.17 107.99
  A 0.34 0.34 0.0 0 1 75.87 108.50
  L 47.01 108.50
  A 0.34 0.34 0.0 0 1 46.71 107.99
  Z"
/>
</svg>
